<svg width="87" height="81" viewBox="0 0 87 81" fill="none" xmlns="http://www.w3.org/2000/svg">
<g clip-path="url(#clip0)">
<path d="M83.2662 13.2363C82.1777 7.82182 77.702 3.60674 71.9529 2.58153C52.6533 -0.85986 33.3537 -0.85986 14.0541 2.58153C8.30526 3.60674 3.82935 7.82182 2.74107 13.2363C-0.913038 31.4124 -0.913038 49.5886 2.74107 67.7647C3.82964 73.1791 8.30526 77.3942 14.0544 78.4194C33.354 81.8608 52.6536 81.8608 71.9532 78.4194C77.7023 77.3942 82.178 73.1791 83.2665 67.7647C86.9203 49.5883 86.9203 31.4124 83.2662 13.2363V13.2363Z" fill="#36A38F"/>
<path d="M43.0028 76.6337C33.6879 76.6337 24.2385 75.791 14.9159 74.1285C11.0236 73.4341 8.0338 70.6178 7.29592 66.9521C3.76725 49.4001 3.76725 31.6003 7.29592 14.0484C8.03233 10.3826 11.0236 7.56628 14.9174 6.8719C24.2385 5.20972 33.6879 4.3667 43.0028 4.3667C52.3194 4.3667 61.7686 5.20944 71.0911 6.8719C74.9834 7.56628 77.9747 10.3826 78.7111 14.0484C82.2398 31.6003 82.2398 49.4001 78.7111 66.9521C77.9732 70.6178 74.9834 73.4344 71.0896 74.1285C61.7686 75.7907 52.3191 76.6337 43.0028 76.6337V76.6337Z" fill="white"/>
<path d="M62.0498 26.5963H23.9556C24.1358 16.8304 32.5882 8.96704 43.009 8.96704C43.6009 8.96704 44.1798 8.99117 44.7457 9.0397C45.1188 9.07602 45.5048 9.11235 45.8649 9.17308C46.5083 9.25794 47.1387 9.37912 47.7432 9.52443C48.5149 9.70634 49.2614 9.93623 49.9819 10.2152C56.9553 12.7958 61.9085 19.1448 62.0498 26.5963V26.5963Z" fill="black"/>
<path d="M41.803 10.98H43.3061V14.0911H41.803V10.98Z" fill="#36A38F"/>
<path d="M58.812 22.2412V23.6569H55.5085V22.2412H58.812Z" fill="#36A38F"/>
<path d="M49.3669 12.3832L50.7547 12.927L49.4859 15.7993L48.0981 15.2555L49.3669 12.3832Z" fill="#36A38F"/>
<path d="M55.1232 16.0015L56.0864 17.0882L53.5503 19.0818L52.5872 17.995L55.1232 16.0015Z" fill="#36A38F"/>
<path d="M30.498 22.2412V23.6569H27.1946V22.2412H30.498Z" fill="#36A38F"/>
<path d="M38.0403 15.2555L36.6526 15.7993L35.3838 12.927L36.7715 12.3832L38.0403 15.2555Z" fill="#36A38F"/>
<path d="M33.551 17.995L32.5878 19.0818L30.0518 17.0882L31.0149 16.0015L33.551 17.995Z" fill="#36A38F"/>
<path d="M43.1725 16.5158C43.1398 16.3367 42.8669 16.3367 42.8342 16.5158L41.1467 25.7457H44.8603L43.1725 16.5158Z" fill="#D15241"/>
<path d="M45.7143 26.6014C45.7146 26.5897 45.7179 26.5789 45.7179 26.5672C45.7179 25.1552 44.5024 24.0107 43.0033 24.0107C41.504 24.0107 40.2888 25.1552 40.2888 26.5672C40.2888 26.5789 40.2924 26.5897 40.2926 26.6014H45.7143Z" fill="#E56353"/>
<g opacity="0.25">
<path opacity="0.25" d="M45.8655 9.17306L32.0482 26.5963H30.8259L44.7463 9.03967C45.1193 9.076 45.5054 9.11233 45.8655 9.17306V9.17306Z" fill="white"/>
<path opacity="0.25" d="M49.9824 10.2149L36.9884 26.5963H34.1968L47.7441 9.52441C48.5158 9.70605 49.2619 9.93622 49.9824 10.2149V10.2149Z" fill="white"/>
</g>
<path d="M35.4241 35.8499H21.4905C19.1338 35.8499 17.2234 37.649 17.2234 39.8686V65.1294C17.2234 67.349 19.1338 69.1482 21.4905 69.1482H35.4241C37.7809 69.1482 39.6913 67.349 39.6913 65.1294V39.8686C39.6916 37.6493 37.7809 35.8499 35.4241 35.8499Z" fill="#36A38F"/>
<path d="M64.5157 35.8499H50.5821C48.2253 35.8499 46.3149 37.649 46.3149 39.8686V65.1294C46.3149 67.349 48.2253 69.1482 50.5821 69.1482H64.5157C66.8725 69.1482 68.7828 67.349 68.7828 65.1294V39.8686C68.7828 37.6493 66.8725 35.8499 64.5157 35.8499Z" fill="#36A38F"/>
</g>
<defs>
<clipPath id="clip0">
<rect width="86.0066" height="81" fill="white"/>
</clipPath>
</defs>
</svg>
