<svg width="481" height="92" viewBox="0 0 481 92" fill="none" xmlns="http://www.w3.org/2000/svg">
<path d="M141.024 35.6C143.04 35.6 144.576 35.144 145.632 34.232C146.736 33.272 147.288 31.832 147.288 29.912C147.288 28.088 146.712 26.696 145.56 25.736C144.456 24.728 142.824 24.224 140.664 24.224C139.896 24.224 139.248 24.248 138.72 24.296C138.24 24.296 137.736 24.344 137.208 24.44V35.6H141.024ZM137.28 58.712C136.752 58.856 135.912 59 134.76 59.144C133.656 59.288 132.552 59.36 131.448 59.36C130.344 59.36 129.36 59.264 128.496 59.072C127.68 58.928 126.984 58.64 126.408 58.208C125.832 57.776 125.4 57.176 125.112 56.408C124.824 55.64 124.68 54.632 124.68 53.384V19.472C124.68 18.464 124.944 17.696 125.472 17.168C126.048 16.592 126.816 16.136 127.776 15.8C129.408 15.224 131.256 14.816 133.32 14.576C135.432 14.288 137.544 14.144 139.656 14.144C146.28 14.144 151.344 15.56 154.848 18.392C158.352 21.224 160.104 25.064 160.104 29.912C160.104 32.264 159.72 34.4 158.952 36.32C158.232 38.192 157.128 39.824 155.64 41.216C154.2 42.56 152.352 43.616 150.096 44.384C147.888 45.104 145.32 45.464 142.392 45.464H137.28V58.712ZM433.509 59.216C431.445 59.216 429.813 58.616 428.613 57.416C427.413 56.216 426.813 54.584 426.813 52.52V15.296C427.341 15.2 428.181 15.08 429.333 14.936C430.485 14.744 431.589 14.648 432.645 14.648C433.749 14.648 434.709 14.744 435.525 14.936C436.389 15.08 437.109 15.368 437.685 15.8C438.261 16.232 438.693 16.832 438.981 17.6C439.269 18.368 439.413 19.376 439.413 20.624V49.064H455.901C456.237 49.592 456.549 50.312 456.837 51.224C457.125 52.088 457.269 53 457.269 53.96C457.269 55.88 456.861 57.248 456.045 58.064C455.229 58.832 454.149 59.216 452.805 59.216H433.509Z" fill="#52D8B8"/>
<path d="M184.084 60.152C181.252 60.152 178.612 59.768 176.164 59C173.764 58.184 171.652 56.984 169.828 55.4C168.052 53.816 166.636 51.824 165.58 49.424C164.572 47.024 164.068 44.216 164.068 41C164.068 37.832 164.572 35.12 165.58 32.864C166.636 30.56 168.004 28.688 169.684 27.248C171.364 25.76 173.284 24.68 175.444 24.008C177.604 23.288 179.812 22.928 182.068 22.928C184.612 22.928 186.916 23.312 188.98 24.08C191.092 24.848 192.892 25.904 194.38 27.248C195.916 28.592 197.092 30.2 197.908 32.072C198.772 33.944 199.204 35.984 199.204 38.192C199.204 39.824 198.748 41.072 197.836 41.936C196.924 42.8 195.652 43.352 194.02 43.592L176.236 46.256C176.764 47.84 177.844 49.04 179.476 49.856C181.108 50.624 182.98 51.008 185.092 51.008C187.06 51.008 188.908 50.768 190.636 50.288C192.412 49.76 193.852 49.16 194.956 48.488C195.724 48.968 196.372 49.64 196.9 50.504C197.428 51.368 197.692 52.28 197.692 53.24C197.692 55.4 196.684 57.008 194.668 58.064C193.132 58.88 191.404 59.432 189.484 59.72C187.564 60.008 185.764 60.152 184.084 60.152ZM182.068 31.856C180.916 31.856 179.908 32.048 179.044 32.432C178.228 32.816 177.556 33.32 177.028 33.944C176.5 34.52 176.092 35.192 175.804 35.96C175.564 36.68 175.42 37.424 175.372 38.192L187.684 36.176C187.54 35.216 187.012 34.256 186.1 33.296C185.188 32.336 183.844 31.856 182.068 31.856ZM234.616 48.56C234.616 52.208 233.248 55.064 230.512 57.128C227.776 59.192 223.744 60.224 218.416 60.224C216.4 60.224 214.528 60.08 212.8 59.792C211.072 59.504 209.584 59.072 208.336 58.496C207.136 57.872 206.176 57.104 205.456 56.192C204.784 55.28 204.448 54.2 204.448 52.952C204.448 51.8 204.688 50.84 205.168 50.072C205.648 49.256 206.224 48.584 206.896 48.056C208.288 48.824 209.872 49.52 211.648 50.144C213.472 50.72 215.56 51.008 217.912 51.008C219.4 51.008 220.528 50.792 221.296 50.36C222.112 49.928 222.52 49.352 222.52 48.632C222.52 47.96 222.232 47.432 221.656 47.048C221.08 46.664 220.12 46.352 218.776 46.112L216.616 45.68C212.44 44.864 209.32 43.592 207.256 41.864C205.24 40.088 204.232 37.568 204.232 34.304C204.232 32.528 204.616 30.92 205.384 29.48C206.152 28.04 207.232 26.84 208.624 25.88C210.016 24.92 211.672 24.176 213.592 23.648C215.56 23.12 217.72 22.856 220.072 22.856C221.848 22.856 223.504 23 225.04 23.288C226.624 23.528 227.992 23.912 229.144 24.44C230.296 24.968 231.208 25.664 231.88 26.528C232.552 27.344 232.888 28.328 232.888 29.48C232.888 30.584 232.672 31.544 232.24 32.36C231.856 33.128 231.352 33.776 230.728 34.304C230.344 34.064 229.768 33.824 229 33.584C228.232 33.296 227.392 33.056 226.48 32.864C225.568 32.624 224.632 32.432 223.672 32.288C222.76 32.144 221.92 32.072 221.152 32.072C219.568 32.072 218.344 32.264 217.48 32.648C216.616 32.984 216.184 33.536 216.184 34.304C216.184 34.832 216.424 35.264 216.904 35.6C217.384 35.936 218.296 36.248 219.64 36.536L221.872 37.04C226.48 38.096 229.744 39.56 231.664 41.432C233.632 43.256 234.616 45.632 234.616 48.56ZM277.101 41.504C277.101 44.48 276.645 47.144 275.733 49.496C274.821 51.8 273.525 53.744 271.845 55.328C270.213 56.912 268.245 58.112 265.941 58.928C263.637 59.744 261.069 60.152 258.237 60.152C255.405 60.152 252.837 59.72 250.533 58.856C248.229 57.992 246.237 56.768 244.557 55.184C242.925 53.552 241.653 51.584 240.741 49.28C239.829 46.976 239.373 44.384 239.373 41.504C239.373 38.672 239.829 36.104 240.741 33.8C241.653 31.496 242.925 29.552 244.557 27.968C246.237 26.336 248.229 25.088 250.533 24.224C252.837 23.36 255.405 22.928 258.237 22.928C261.069 22.928 263.637 23.384 265.941 24.296C268.245 25.16 270.213 26.408 271.845 28.04C273.525 29.624 274.821 31.568 275.733 33.872C276.645 36.176 277.101 38.72 277.101 41.504ZM251.901 41.504C251.901 44.432 252.453 46.688 253.557 48.272C254.709 49.808 256.293 50.576 258.309 50.576C260.325 50.576 261.861 49.784 262.917 48.2C264.021 46.616 264.573 44.384 264.573 41.504C264.573 38.624 264.021 36.416 262.917 34.88C261.813 33.296 260.253 32.504 258.237 32.504C256.221 32.504 254.661 33.296 253.557 34.88C252.453 36.416 251.901 38.624 251.901 41.504ZM296.608 58.712C296.08 58.856 295.24 59 294.088 59.144C292.984 59.288 291.88 59.36 290.776 59.36C289.672 59.36 288.688 59.264 287.824 59.072C287.008 58.928 286.312 58.64 285.736 58.208C285.16 57.776 284.728 57.176 284.44 56.408C284.152 55.64 284.008 54.632 284.008 53.384V15.368C284.536 15.272 285.376 15.152 286.528 15.008C287.68 14.816 288.784 14.72 289.84 14.72C290.944 14.72 291.904 14.816 292.72 15.008C293.584 15.152 294.304 15.44 294.88 15.872C295.456 16.304 295.888 16.904 296.176 17.672C296.464 18.44 296.608 19.448 296.608 20.696V58.712ZM303.498 41.504C303.498 38.336 303.978 35.6 304.938 33.296C305.898 30.944 307.218 29 308.898 27.464C310.626 25.928 312.618 24.8 314.874 24.08C317.178 23.312 319.65 22.928 322.29 22.928C323.25 22.928 324.186 23.024 325.098 23.216C326.01 23.36 326.754 23.552 327.33 23.792V12.128C327.81 11.984 328.578 11.84 329.634 11.696C330.69 11.504 331.77 11.408 332.874 11.408C333.93 11.408 334.866 11.48 335.682 11.624C336.546 11.768 337.266 12.056 337.842 12.488C338.418 12.92 338.85 13.52 339.138 14.288C339.426 15.008 339.57 15.968 339.57 17.168V51.296C339.57 53.552 338.514 55.352 336.402 56.696C335.01 57.608 333.21 58.4 331.002 59.072C328.794 59.792 326.25 60.152 323.37 60.152C320.25 60.152 317.442 59.72 314.946 58.856C312.498 57.992 310.41 56.744 308.682 55.112C307.002 53.48 305.706 51.536 304.794 49.28C303.93 46.976 303.498 44.384 303.498 41.504ZM323.946 32.504C321.354 32.504 319.362 33.248 317.97 34.736C316.578 36.224 315.882 38.48 315.882 41.504C315.882 44.48 316.53 46.736 317.826 48.272C319.122 49.76 320.994 50.504 323.442 50.504C324.306 50.504 325.074 50.384 325.746 50.144C326.466 49.856 327.018 49.544 327.402 49.208V33.368C326.442 32.792 325.29 32.504 323.946 32.504ZM365.701 60.152C362.869 60.152 360.229 59.768 357.781 59C355.381 58.184 353.269 56.984 351.445 55.4C349.669 53.816 348.253 51.824 347.197 49.424C346.189 47.024 345.685 44.216 345.685 41C345.685 37.832 346.189 35.12 347.197 32.864C348.253 30.56 349.621 28.688 351.301 27.248C352.981 25.76 354.901 24.68 357.061 24.008C359.221 23.288 361.429 22.928 363.685 22.928C366.229 22.928 368.533 23.312 370.597 24.08C372.709 24.848 374.509 25.904 375.997 27.248C377.533 28.592 378.709 30.2 379.525 32.072C380.389 33.944 380.821 35.984 380.821 38.192C380.821 39.824 380.365 41.072 379.453 41.936C378.541 42.8 377.269 43.352 375.637 43.592L357.853 46.256C358.381 47.84 359.461 49.04 361.093 49.856C362.725 50.624 364.597 51.008 366.709 51.008C368.677 51.008 370.525 50.768 372.253 50.288C374.029 49.76 375.469 49.16 376.573 48.488C377.341 48.968 377.989 49.64 378.517 50.504C379.045 51.368 379.309 52.28 379.309 53.24C379.309 55.4 378.301 57.008 376.285 58.064C374.749 58.88 373.021 59.432 371.101 59.72C369.181 60.008 367.381 60.152 365.701 60.152ZM363.685 31.856C362.533 31.856 361.525 32.048 360.661 32.432C359.845 32.816 359.173 33.32 358.645 33.944C358.117 34.52 357.709 35.192 357.421 35.96C357.181 36.68 357.037 37.424 356.989 38.192L369.301 36.176C369.157 35.216 368.629 34.256 367.717 33.296C366.805 32.336 365.461 31.856 363.685 31.856ZM401.689 51.224C402.505 51.224 403.393 51.152 404.353 51.008C405.361 50.816 406.105 50.576 406.585 50.288V44.528L401.401 44.96C400.057 45.056 398.953 45.344 398.089 45.824C397.225 46.304 396.793 47.024 396.793 47.984C396.793 48.944 397.153 49.736 397.873 50.36C398.641 50.936 399.913 51.224 401.689 51.224ZM401.113 22.928C403.705 22.928 406.057 23.192 408.169 23.72C410.329 24.248 412.153 25.064 413.641 26.168C415.177 27.224 416.353 28.592 417.169 30.272C417.985 31.904 418.393 33.848 418.393 36.104V52.232C418.393 53.48 418.033 54.512 417.313 55.328C416.641 56.096 415.825 56.768 414.865 57.344C411.745 59.216 407.353 60.152 401.689 60.152C399.145 60.152 396.841 59.912 394.777 59.432C392.761 58.952 391.009 58.232 389.521 57.272C388.081 56.312 386.953 55.088 386.137 53.6C385.369 52.112 384.985 50.384 384.985 48.416C384.985 45.104 385.969 42.56 387.937 40.784C389.905 39.008 392.953 37.904 397.081 37.472L406.513 36.464V35.96C406.513 34.568 405.889 33.584 404.641 33.008C403.441 32.384 401.689 32.072 399.385 32.072C397.561 32.072 395.785 32.264 394.057 32.648C392.329 33.032 390.769 33.512 389.377 34.088C388.753 33.656 388.225 33.008 387.793 32.144C387.361 31.232 387.145 30.296 387.145 29.336C387.145 28.088 387.433 27.104 388.009 26.384C388.633 25.616 389.569 24.968 390.817 24.44C392.209 23.912 393.841 23.528 395.713 23.288C397.633 23.048 399.433 22.928 401.113 22.928Z" fill="white"/>
<g clip-path="url(#clip0)">
<path d="M83.2662 13.2363C82.1777 7.82182 77.702 3.60674 71.9529 2.58153C52.6533 -0.85986 33.3537 -0.85986 14.0541 2.58153C8.30526 3.60674 3.82935 7.82182 2.74107 13.2363C-0.913038 31.4124 -0.913038 49.5886 2.74107 67.7647C3.82964 73.1791 8.30526 77.3942 14.0544 78.4194C33.354 81.8608 52.6536 81.8608 71.9532 78.4194C77.7023 77.3942 82.178 73.1791 83.2665 67.7647C86.9203 49.5883 86.9203 31.4124 83.2662 13.2363V13.2363Z" fill="#36A38F"/>
<path d="M43.0028 76.6337C33.6879 76.6337 24.2385 75.791 14.9159 74.1285C11.0236 73.4341 8.0338 70.6178 7.29592 66.9521C3.76725 49.4001 3.76725 31.6003 7.29592 14.0484C8.03233 10.3826 11.0236 7.56628 14.9174 6.8719C24.2385 5.20972 33.6879 4.3667 43.0028 4.3667C52.3194 4.3667 61.7686 5.20944 71.0911 6.8719C74.9834 7.56628 77.9747 10.3826 78.7111 14.0484C82.2398 31.6003 82.2398 49.4001 78.7111 66.9521C77.9732 70.6178 74.9834 73.4344 71.0896 74.1285C61.7686 75.7907 52.3191 76.6337 43.0028 76.6337V76.6337Z" fill="white"/>
<path d="M62.0498 26.5963H23.9556C24.1358 16.8304 32.5882 8.96704 43.009 8.96704C43.6009 8.96704 44.1798 8.99117 44.7457 9.0397C45.1188 9.07602 45.5048 9.11235 45.8649 9.17308C46.5083 9.25794 47.1387 9.37912 47.7432 9.52443C48.5149 9.70634 49.2614 9.93623 49.9819 10.2152C56.9553 12.7958 61.9085 19.1448 62.0498 26.5963V26.5963Z" fill="black"/>
<path d="M41.803 10.98H43.3061V14.0911H41.803V10.98Z" fill="#36A38F"/>
<path d="M58.812 22.2412V23.6569H55.5085V22.2412H58.812Z" fill="#36A38F"/>
<path d="M49.3669 12.3832L50.7547 12.927L49.4859 15.7993L48.0981 15.2555L49.3669 12.3832Z" fill="#36A38F"/>
<path d="M55.1232 16.0015L56.0864 17.0882L53.5503 19.0818L52.5872 17.995L55.1232 16.0015Z" fill="#36A38F"/>
<path d="M30.498 22.2412V23.6569H27.1946V22.2412H30.498Z" fill="#36A38F"/>
<path d="M38.0403 15.2555L36.6526 15.7993L35.3838 12.927L36.7715 12.3832L38.0403 15.2555Z" fill="#36A38F"/>
<path d="M33.551 17.995L32.5878 19.0818L30.0518 17.0882L31.0149 16.0015L33.551 17.995Z" fill="#36A38F"/>
<path d="M43.1725 16.5158C43.1398 16.3367 42.8669 16.3367 42.8342 16.5158L41.1467 25.7457H44.8603L43.1725 16.5158Z" fill="#D15241"/>
<path d="M45.7143 26.6014C45.7146 26.5897 45.7179 26.5789 45.7179 26.5672C45.7179 25.1552 44.5024 24.0107 43.0033 24.0107C41.504 24.0107 40.2888 25.1552 40.2888 26.5672C40.2888 26.5789 40.2924 26.5897 40.2926 26.6014H45.7143Z" fill="#E56353"/>
<g opacity="0.25">
<path opacity="0.25" d="M45.8655 9.17306L32.0482 26.5963H30.8259L44.7463 9.03967C45.1193 9.076 45.5054 9.11233 45.8655 9.17306V9.17306Z" fill="white"/>
<path opacity="0.25" d="M49.9824 10.2149L36.9884 26.5963H34.1968L47.7441 9.52441C48.5158 9.70605 49.2619 9.93622 49.9824 10.2149V10.2149Z" fill="white"/>
</g>
<path d="M35.4241 35.8499H21.4905C19.1338 35.8499 17.2234 37.649 17.2234 39.8686V65.1294C17.2234 67.349 19.1338 69.1482 21.4905 69.1482H35.4241C37.7809 69.1482 39.6913 67.349 39.6913 65.1294V39.8686C39.6916 37.6493 37.7809 35.8499 35.4241 35.8499Z" fill="#36A38F"/>
<path d="M64.5157 35.8499H50.5821C48.2253 35.8499 46.3149 37.649 46.3149 39.8686V65.1294C46.3149 67.349 48.2253 69.1482 50.5821 69.1482H64.5157C66.8725 69.1482 68.7828 67.349 68.7828 65.1294V39.8686C68.7828 37.6493 66.8725 35.8499 64.5157 35.8499Z" fill="#36A38F"/>
</g>
<defs>
<clipPath id="clip0">
<rect width="86.0066" height="81" fill="white"/>
</clipPath>
</defs>
</svg>
